<?xml version="1.0" standalone="no"?>
<!DOCTYPE svg PUBLIC "-//W3C//DTD SVG 20010904//EN"
 "http://www.w3.org/TR/2001/REC-SVG-20010904/DTD/svg10.dtd">
<svg version="1.0" xmlns="http://www.w3.org/2000/svg"
 width="800.000000pt" height="800.000000pt" viewBox="0 0 800.000000 800.000000"
 preserveAspectRatio="xMidYMid meet">

<g transform="translate(0.000000,800.000000) scale(0.100000,-0.100000)"
fill="#000000" stroke="none">
<path d="M3625 7674 c-485 -60 -856 -166 -1240 -353 -672 -328 -1225 -844
-1598 -1491 -127 -221 -211 -412 -297 -670 -72 -215 -110 -372 -147 -600 -27
-171 -28 -185 -28 -565 0 -382 1 -393 29 -555 71 -419 171 -729 348 -1085 125
-250 302 -519 485 -734 151 -178 464 -470 633 -590 672 -479 1380 -710 2176
-711 364 0 649 38 999 135 918 255 1724 887 2205 1730 319 558 480 1170 480
1820 0 326 -32 583 -110 895 -106 422 -294 840 -532 1180 -23 34 -50 71 -58
83 -141 207 -434 517 -661 699 -488 391 -1015 639 -1609 758 -237 47 -480 70
-730 69 -129 -1 -284 -8 -345 -15z m480 -1587 c176 -45 416 -127 518 -177 107
-54 218 -141 290 -230 44 -53 112 -206 133 -295 29 -126 25 -296 -11 -477
l-29 -147 22 -44 c28 -57 29 -141 2 -266 -21 -95 -35 -132 -70 -187 -11 -17
-35 -85 -54 -150 -63 -222 -139 -369 -283 -545 -219 -268 -506 -405 -742 -355
-82 17 -174 57 -254 110 -70 47 -213 186 -273 266 -27 36 -52 67 -56 70 -3 3
-37 66 -75 140 -72 141 -115 261 -134 369 -7 40 -23 80 -41 108 -46 67 -80
199 -82 315 -1 86 1 99 21 120 39 42 42 64 21 218 -24 181 -20 461 7 550 70
224 278 449 535 580 121 62 162 71 295 66 94 -3 150 -12 260 -39z m-665 -2841
c269 -234 572 -287 867 -151 61 28 176 97 193 115 20 21 102 70 117 70 11 0
45 -19 76 -42 132 -101 235 -155 437 -228 80 -29 161 -61 181 -71 20 -10 83
-36 140 -58 206 -78 306 -136 380 -218 44 -49 148 -261 187 -383 70 -216 128
-479 156 -705 9 -71 21 -163 26 -203 15 -113 16 -112 -51 -162 -32 -25 -81
-62 -107 -82 -27 -20 -110 -75 -185 -122 -796 -496 -1749 -656 -2654 -447
-454 105 -803 257 -1193 517 -167 111 -245 177 -244 205 3 56 26 261 40 349
72 451 156 731 284 955 71 124 191 210 385 277 476 164 662 255 803 394 l65
63 31 -21 c17 -12 47 -35 66 -52z"/>
</g>
</svg>
